<svg width="195" height="36" viewBox="0 0 195 36" fill="none" xmlns="http://www.w3.org/2000/svg">
<path d="M70.728 20.984C70.728 15.344 62.4 16.664 62.4 13.736C62.4 12.68 63.144 12.176 64.128 12.2C65.232 12.224 66 12.872 66.072 13.952H70.512C70.344 10.736 67.872 8.912 64.2 8.912C60.672 8.912 58.056 10.688 58.056 13.88C58.008 19.856 66.432 18.176 66.432 21.296C66.432 22.28 65.664 22.88 64.464 22.88C63.312 22.88 62.496 22.256 62.376 20.96H58.008C58.128 24.368 60.96 26.168 64.584 26.168C68.52 26.168 70.728 23.816 70.728 20.984ZM83.7416 26H87.8456V9.152H83.7416V15.752H77.3576V9.152H73.2536V26H77.3576V19.064H83.7416V26ZM107.392 17.528C107.392 12.464 103.576 8.912 98.7763 8.912C94.0003 8.912 90.1123 12.464 90.1123 17.528C90.1123 22.592 94.0003 26.168 98.7763 26.168C103.552 26.168 107.392 22.592 107.392 17.528ZM94.3123 17.528C94.3123 14.528 96.0403 12.632 98.7763 12.632C101.464 12.632 103.216 14.528 103.216 17.528C103.216 20.48 101.464 22.424 98.7763 22.424C96.0403 22.424 94.3123 20.48 94.3123 17.528ZM113.78 16.688V12.464H116.012C117.644 12.464 118.34 13.28 118.34 14.576C118.34 15.872 117.644 16.688 116.012 16.688H113.78ZM122.516 14.576C122.516 11.48 120.452 9.152 116.324 9.152H109.676V26H113.78V19.952H116.324C120.62 19.952 122.516 17.36 122.516 14.576ZM140.706 9.152V19.592L133.842 9.152H129.738V26H133.842V15.608L140.706 26H144.81V9.152H140.706ZM164.369 17.528C164.369 12.464 160.553 8.912 155.753 8.912C150.977 8.912 147.089 12.464 147.089 17.528C147.089 22.592 150.977 26.168 155.753 26.168C160.529 26.168 164.369 22.592 164.369 17.528ZM151.289 17.528C151.289 14.528 153.017 12.632 155.753 12.632C158.441 12.632 160.193 14.528 160.193 17.528C160.193 20.48 158.441 22.424 155.753 22.424C153.017 22.424 151.289 20.48 151.289 17.528ZM170.036 26H175.004L177.788 14.912L180.476 26H185.444L189.836 9.152H185.42L182.972 21.416L180.092 9.152H175.58L172.58 21.416L170.156 9.152H165.764L170.036 26Z" fill="white"/>
<path d="M57 28.4H190.412V29.6H57V28.4Z" fill="white"/>
<circle cx="18" cy="18" r="18" fill="#FBB03B"/>
<path d="M19.614 11L25.7729 16.8409L27 18.0037L25.7729 19.1675L19.614 25L18.3869 23.8446L23.6745 18.8261H10V17.1823H23.6745L18.3869 12.1659L19.614 11Z" fill="white"/>
</svg>
