<svg width="20" height="20" viewBox="0 0 20 20" fill="none" xmlns="http://www.w3.org/2000/svg">
<path d="M18.76 13.34H18.75C19.5 13.77 20 14.58 20 15.5C20 16.163 19.7366 16.7989 19.2678 17.2678C18.7989 17.7366 18.163 18 17.5 18H2.5C1.83696 18 1.20107 17.7366 0.732233 17.2678C0.263392 16.7989 0 16.163 0 15.5C0 14.58 0.5 13.77 1.25 13.34H1.24L9 8.86C9 8.86 9 8 10 7C11 7 12 6.1 12 5C12 4.46957 11.7893 3.96086 11.4142 3.58579C11.0391 3.21071 10.5304 3 10 3C9.46957 3 8.96086 3.21071 8.58579 3.58579C8.21071 3.96086 8 4.46957 8 5H6C6 3.93913 6.42143 2.92172 7.17157 2.17157C7.92172 1.42143 8.93913 1 10 1C11.0609 1 12.0783 1.42143 12.8284 2.17157C13.5786 2.92172 14 3.93913 14 5C14 6.86 12.73 8.42 11 8.87L18.76 13.34ZM2.5 16H17.5C17.67 16 17.84 15.91 17.93 15.75C18.07 15.5 18 15.21 17.75 15.07L10 10.59L2.25 15.07C2 15.21 1.93 15.5 2.07 15.75C2.16 15.91 2.33 16 2.5 16Z" fill="#2979FF"/>
</svg>
